# xmcd
#
# Track frame offsets:
#	150
#	16516
#	33798
#	51700
#	73409
#	88643
#	104180
#
# Disc length: 1748 seconds
#
# Revision: 0
# Processed by: cddbd v1.5.2PL0 Copyright (c) Steve Scherf et al.
# Submitted via: dBpowerAMP V4.0
#
DISCID=5e06d207
DTITLE=Jimmy Uller Bluesband - Blues från hemmaplan
DYEAR=2007
DGENRE=Blues
TTITLE0=ÅFF Blues
TTITLE1=When Your Love Is Gone
TTITLE2=Shootdown Blues
TTITLE3=Crossroads Blues
TTITLE4=My Lost Friend
TTITLE5=My Longing
TTITLE6=Your Heaven
EXTD=
EXTT0=
EXTT1=
EXTT2=
EXTT3=
EXTT4=
EXTT5=
EXTT6=
PLAYORDER=
